<svg width="125" height="594" viewBox="0 0 125 594" fill="none" xmlns="http://www.w3.org/2000/svg">
<path d="M69.2 124.4H2.98023e-08V93.6L63.6 -6.19888e-06H103.4V94.2H124.6V103.8H93.8V9.59999H68.8L9.6 96.6V114.8H78.8V156H69.2V124.4ZM24.8 91.8L66 31H78.8V103.8H24.8V91.8ZM34.4 94.2H69.2V42.8L34.4 94.2ZM93.8 114.8H124.6V124.4H103.4V156H93.8V114.8ZM62 379C40.8 379 25.4 371.933 15.8 357.8C6.2 343.667 1.4 323.333 1.4 296.8C1.4 281.067 3.46667 267.067 7.6 254.8C11.8667 242.4 18.4667 232.667 27.4 225.6C36.3333 218.4 47.8667 214.8 62 214.8C76.1333 214.8 87.6667 218.333 96.6 225.4C105.533 232.333 112.133 242 116.4 254.4C120.667 266.667 122.8 280.8 122.8 296.8C122.8 313.6 120.667 328.133 116.4 340.4C112.133 352.667 105.533 362.2 96.6 369C87.6667 375.667 76.1333 379 62 379ZM62 369.6C74.2667 369.6 84.1333 366.6 91.6 360.6C99.0667 354.467 104.533 345.933 108 335C111.467 324.067 113.2 311.333 113.2 296.8C113.2 282.933 111.467 270.533 108 259.6C104.533 248.667 99.0667 240.067 91.6 233.8C84.1333 227.533 74.2667 224.4 62 224.4C49.7333 224.4 39.8667 227.6 32.4 234C24.9333 240.4 19.4667 249.067 16 260C12.6667 270.8 11 283.067 11 296.8C11 312.133 12.6667 325.267 16 336.2C19.4667 347 24.9333 355.267 32.4 361C39.8667 366.733 49.7333 369.6 62 369.6ZM62 358.2C52.1333 358.2 44 353.2 37.6 343.2C31.3333 333.067 28.2 317.6 28.2 296.8C28.2 276.933 31.2667 261.867 37.4 251.6C43.6667 241.2 51.8667 236 62 236C72.1333 236 80.2667 241.267 86.4 251.8C92.6667 262.333 95.8 277.333 95.8 296.8C95.8 317.6 92.6 333.067 86.2 343.2C79.9333 353.2 71.8667 358.2 62 358.2ZM62 348.6C70 348.6 76 344.2 80 335.4C84.1333 326.6 86.2 313.733 86.2 296.8C86.2 280.933 84.2 268.467 80.2 259.4C76.3333 250.2 70.2667 245.6 62 245.6C53.8667 245.6 47.8 250.133 43.8 259.2C39.8 268.133 37.8 280.667 37.8 296.8C37.8 313.733 39.8 326.6 43.8 335.4C47.8 344.2 53.8667 348.6 62 348.6ZM69.2 562.4H2.98023e-08V531.6L63.6 438H103.4V532.2H124.6V541.8H93.8V447.6H68.8L9.6 534.6V552.8H78.8V594H69.2V562.4ZM24.8 529.8L66 469H78.8V541.8H24.8V529.8ZM34.4 532.2H69.2V480.8L34.4 532.2ZM93.8 552.8H124.6V562.4H103.4V594H93.8V552.8Z" fill="white"/>
</svg>
